<?xml version="1.0" encoding="UTF-8"?>
<svg id="Layer_2" data-name="Layer 2" xmlns="http://www.w3.org/2000/svg" viewBox="0 0 102.71 102.71">
  <defs>
    <style>
      .cls-1 {
        fill: #fff;
      }
    </style>
  </defs>
  <g id="Layer_1-2" data-name="Layer 1">
    <path class="cls-1" d="M51.36,0C22.99,0,0,22.99,0,51.36s22.99,51.36,51.36,51.36,51.36-22.99,51.36-51.36S79.72,0,51.36,0ZM92.42,53.92c-4.57,1.16-9.19,1-12.68-.44-2.07-.86-3.18-3.98-3.3-4.33-.19-.55-.9-.65-1.29-.62-.24.02-1.02.14-1.13.84-.14.88-2.19,11.46-3.73,14.75-.95,2.03-2.8,3.27-4.73,3.27-.34,0-.68-.04-1.02-.12-2.79-.65-4.41-3.49-5.01-5.94-.92-3.78-1.66-8.12-2.2-11.48-.32-2.02-1.95-13.26-2.26-15.38h-.03c-.27.72-1.13,5.45-1.65,8.28-.47,2.6-.77,4.22-.92,4.81-2.11,8.25-3.56,12.99-4.54,14.93-.7,1.39-2.26,2.31-3.9,2.26-1.61-.04-2.96-.96-3.64-2.46-.91-2.05-2.99-10.59-3.42-14.06-.12-.96-.89-1.56-1.56-1.65-1.02-.13-1.55.88-1.79,1.49-1.31,3.33-3.82,8.27-4.48,9.14-1.32,1.73-3.75,2.35-5.92,1.5-1.56-.61-2.21-1.92-2.73-2.96-.19-.38-.36-.74-.57-1.04-.34-.5-.92-.9-1.35-.92-1.85-.11-3.25-.09-4.88-.06-.94.01-1.93.03-3.06.02-.87,0-1.57-.72-1.56-1.59,0-.86.71-1.56,1.57-1.56h.01c1.11.01,2.07,0,2.99-.02,1.62-.03,3.15-.05,5.12.07,1.71.1,3.07,1.26,3.77,2.31.32.48.56.97.78,1.4.4.81.65,1.27,1.05,1.43.85.33,1.8.13,2.26-.48.4-.55,2.73-5.01,4.06-8.38,1.13-2.89,3.39-3.68,5.12-3.47,2.21.28,4.01,2.12,4.29,4.39.41,3.37,2.43,11.51,3.17,13.16.18.4.45.59.84.6.39,0,.86-.22,1.02-.53.85-1.68,2.3-6.49,4.3-14.29.13-.5.49-2.49.87-4.59.86-4.73,1.45-7.89,1.79-8.8.46-1.25,1.63-2.07,2.97-2.08,1.36.01,2.52.79,3,2.04l.06.17.02.18c.02.13,1.95,13.51,2.3,15.67.53,3.3,1.25,7.56,2.15,11.24.37,1.53,1.36,3.31,2.66,3.62.93.22,1.78-.59,2.17-1.43,1.22-2.61,3.2-12.24,3.47-13.92.31-1.91,1.91-3.3,3.98-3.47,2.09-.17,3.92.93,4.53,2.74.4,1.2,1.19,2.28,1.52,2.43,2.83,1.17,6.83,1.28,10.7.3.84-.21,1.7.3,1.91,1.14.21.84-.3,1.7-1.14,1.91Z"/>
  </g>
</svg>