<?xml version="1.0" encoding="UTF-8"?>
<svg xmlns="http://www.w3.org/2000/svg" viewBox="0 0 115.42 49.28">
  <defs>
    <style>
      .cls-1 {
        isolation: isolate;
      }

      .cls-2 {
        fill: none;
        mix-blend-mode: screen;
        stroke: #fff;
        stroke-linecap: round;
        stroke-miterlimit: 10;
        stroke-width: 4.3px;
      }
    </style>
  </defs>
  <g class="cls-1">
    <g id="Layer_2" data-name="Layer 2">
      <g id="Layer_1-2" data-name="Layer 1">
        <path class="cls-2" d="M2.15,28.48c4.2.04,6.84-.18,10.96.06,1.44.09,2.77,1.13,3.5,2.21,1.17,1.74,1.54,3.9,3.5,4.66,1.95.76,4.31.32,5.59-1.35.7-.92,4.01-7.34,5.83-11.97,2.21-5.64,8.19-3.51,8.72.74.59,4.77,3.38,16.08,4.5,18.59,1.36,3.05,5.26,2.47,6.41.19,1.61-3.18,4.17-12.71,6.03-19.95.5-1.95,2.87-16.18,3.57-18.07s3.39-1.92,4.13-.03c0,0,2.66,18.43,3.14,21.43.8,4.97,1.78,10.62,2.96,15.51.6,2.46,2.32,5.84,5.24,6.52,2.26.53,4.39-.96,5.41-3.13,1.89-4.03,4.62-17.77,4.92-19.58.6-3.67,6.35-3.98,7.47-.65.51,1.5,1.83,4.02,3.29,4.62,4.83,1.99,10.9,1.79,15.97.5"/>
      </g>
    </g>
  </g>
</svg>
