<?xml version="1.0" encoding="UTF-8"?>
<svg xmlns="http://www.w3.org/2000/svg" viewBox="0 0 115.42 49.28">
  <defs>
    <style>
      .cls-1 {
        isolation: isolate;
      }

      .cls-2 {
        fill: #fff;
      }

      .cls-3 {
        mix-blend-mode: screen;
      }
    </style>
  </defs>
  <g class="cls-1">
    <g id="Layer_2" data-name="Layer 2">
      <g id="Layer_1-2" data-name="Layer 1">
        <g class="cls-3">
          <path class="cls-2" d="M77.12,49.28c-.46,0-.93-.05-1.39-.16-3.8-.89-6.03-4.77-6.84-8.11-1.26-5.17-2.26-11.09-3-15.68-.44-2.75-2.66-18.1-3.08-21.01h-.04c-.37.99-1.55,7.45-2.25,11.31-.65,3.55-1.06,5.77-1.26,6.56-2.89,11.26-4.86,17.74-6.2,20.39-.96,1.9-3.09,3.16-5.33,3.08-2.19-.05-4.05-1.31-4.97-3.37-1.25-2.8-4.08-14.46-4.67-19.2-.16-1.31-1.22-2.14-2.13-2.25-1.39-.18-2.12,1.2-2.45,2.04-1.79,4.55-5.22,11.3-6.12,12.49-1.8,2.36-5.12,3.2-8.08,2.05-2.13-.83-3.01-2.62-3.72-4.05-.26-.52-.5-1-.78-1.42-.46-.68-1.25-1.23-1.84-1.26-2.53-.15-4.45-.12-6.67-.09-1.28.02-2.63.04-4.18.03C.94,30.62-.01,29.64,0,28.46c.01-1.18.97-2.13,2.15-2.13h.02c1.52.02,2.83,0,4.08-.03,2.21-.03,4.3-.07,6.99.09,2.33.14,4.19,1.72,5.16,3.16.44.65.77,1.32,1.06,1.91.55,1.1.88,1.74,1.44,1.95,1.16.45,2.46.18,3.09-.65.55-.75,3.73-6.85,5.54-11.45,1.55-3.95,4.63-5.03,6.99-4.73,3.02.38,5.48,2.9,5.86,5.99.56,4.6,3.32,15.72,4.32,17.97.24.54.62.81,1.14.82.53,0,1.17-.3,1.39-.72,1.16-2.3,3.14-8.87,5.87-19.52.18-.69.67-3.4,1.19-6.27,1.18-6.46,1.99-10.78,2.44-12.02.63-1.71,2.22-2.83,4.05-2.84,1.86.02,3.44,1.08,4.1,2.79l.09.23.03.24c.03.18,2.67,18.45,3.14,21.4.72,4.51,1.71,10.33,2.93,15.35.51,2.09,1.86,4.52,3.64,4.94,1.27.3,2.43-.8,2.97-1.95,1.67-3.56,4.37-16.71,4.74-19.02.43-2.6,2.61-4.51,5.44-4.74,2.85-.23,5.35,1.27,6.19,3.75.55,1.63,1.62,3.12,2.07,3.32,3.87,1.6,9.33,1.75,14.62.41,1.14-.29,2.32.4,2.61,1.55.29,1.15-.4,2.32-1.55,2.61-6.24,1.58-12.55,1.37-17.32-.6-2.83-1.17-4.34-5.43-4.51-5.91-.26-.76-1.23-.88-1.76-.84-.32.03-1.39.19-1.55,1.15-.2,1.21-2.99,15.65-5.09,20.14-1.3,2.77-3.83,4.47-6.45,4.47Z"/>
        </g>
      </g>
    </g>
  </g>
</svg>